<svg xmlns="http://www.w3.org/2000/svg" viewBox="0 0 512 512"><path d="M256,102.7c49.93,0,55.84.19,75.56,1.09,18.24.83,28.14,3.87,34.73,6.43a62,62,0,0,1,35.49,35.49c2.56,6.59,5.6,16.49,6.43,34.73.9,19.72,1.09,25.63,1.09,75.56s-.19,55.84-1.09,75.56c-.83,18.24-3.87,28.14-6.43,34.73a62,62,0,0,1-35.49,35.49c-6.59,2.56-16.49,5.6-34.73,6.43-19.71.9-25.63,1.09-75.56,1.09s-55.85-.19-75.56-1.09c-18.24-.83-28.14-3.87-34.73-6.43a62,62,0,0,1-35.49-35.49c-2.56-6.59-5.6-16.49-6.43-34.73-.9-19.72-1.09-25.63-1.09-75.56s.19-55.84,1.09-75.56c.83-18.24,3.87-28.14,6.43-34.73a62,62,0,0,1,35.49-35.49c6.59-2.56,16.49-5.6,34.73-6.43,19.72-.9,25.63-1.09,75.56-1.09M256,69c-50.79,0-57.15.22-77.1,1.13s-33.5,4.07-45.39,8.69a95.64,95.64,0,0,0-54.69,54.69C74.2,145.4,71,159,70.13,178.9S69,205.21,69,256s.22,57.15,1.13,77.1,4.07,33.5,8.69,45.39a95.64,95.64,0,0,0,54.69,54.69C145.4,437.8,159,441,178.9,441.87S205.21,443,256,443s57.15-.22,77.1-1.13,33.5-4.07,45.39-8.69a95.64,95.64,0,0,0,54.69-54.69C437.8,366.6,441,353,441.87,333.1S443,306.79,443,256s-.22-57.15-1.13-77.1-4.07-33.5-8.69-45.39a95.64,95.64,0,0,0-54.69-54.69C366.6,74.2,353,71,333.1,70.13S306.79,69,256,69Z"/><path d="M256,160a96,96,0,1,0,96,96A96,96,0,0,0,256,160Zm0,158.36A62.33,62.33,0,1,1,318.33,256,62.32,62.32,0,0,1,256,318.33Z"/><circle cx="355.82" cy="156.18" r="22.44"/></svg>